<mxfile host="app.diagrams.net" modified="2024-03-05T06:05:51.734Z" agent="Mozilla/5.0 (Macintosh; Intel Mac OS X 10_15_7) AppleWebKit/537.36 (KHTML, like Gecko) Chrome/121.0.0.0 Safari/537.36" etag="Yf2tzODHELR5NR-fKtcw" version="23.1.5" type="github">
  <diagram name="Page-1" id="wdnWXbD9k6MMhvvGhhrl">
    <mxGraphModel dx="1804" dy="494" grid="1" gridSize="10" guides="1" tooltips="1" connect="1" arrows="1" fold="1" page="1" pageScale="1" pageWidth="850" pageHeight="1100" math="0" shadow="0">
      <root>
        <mxCell id="0" />
        <mxCell id="1" parent="0" />
        <mxCell id="LCYNJiPnbUZjH4nubwrZ-1" value="" style="ellipse;shape=cloud;whiteSpace=wrap;html=1;" vertex="1" parent="1">
          <mxGeometry x="-310" y="430" width="490" height="320" as="geometry" />
        </mxCell>
        <mxCell id="LCYNJiPnbUZjH4nubwrZ-2" value="&lt;font style=&quot;font-size: 72px;&quot;&gt;Spotify&lt;/font&gt;" style="text;strokeColor=none;fillColor=none;html=1;fontSize=24;fontStyle=1;verticalAlign=middle;align=center;" vertex="1" parent="1">
          <mxGeometry x="-180" y="10" width="265" height="140" as="geometry" />
        </mxCell>
        <UserObject label="&lt;font style=&quot;font-size: 14px;&quot;&gt;Entities&lt;/font&gt;" placeholders="1" name="Variable" id="LCYNJiPnbUZjH4nubwrZ-3">
          <mxCell style="text;html=1;strokeColor=none;fillColor=none;align=center;verticalAlign=middle;whiteSpace=wrap;overflow=hidden;" vertex="1" parent="1">
            <mxGeometry x="-820" y="60" width="80" height="20" as="geometry" />
          </mxCell>
        </UserObject>
        <mxCell id="LCYNJiPnbUZjH4nubwrZ-4" value="&lt;ul&gt;&lt;li&gt;Song&lt;/li&gt;&lt;li&gt;Playlist&lt;/li&gt;&lt;li&gt;Artist&lt;/li&gt;&lt;li&gt;User&lt;/li&gt;&lt;li&gt;Podcast&lt;/li&gt;&lt;li&gt;Book&lt;/li&gt;&lt;/ul&gt;" style="text;strokeColor=none;fillColor=none;html=1;whiteSpace=wrap;verticalAlign=middle;overflow=hidden;" vertex="1" parent="1">
          <mxGeometry x="-830" y="90" width="100" height="110" as="geometry" />
        </mxCell>
        <UserObject label="&lt;font style=&quot;font-size: 14px;&quot;&gt;Numbers&lt;/font&gt;" placeholders="1" name="Variable" id="LCYNJiPnbUZjH4nubwrZ-5">
          <mxCell style="text;html=1;strokeColor=none;fillColor=none;align=center;verticalAlign=middle;whiteSpace=wrap;overflow=hidden;" vertex="1" parent="1">
            <mxGeometry x="-820" y="240" width="90" height="20" as="geometry" />
          </mxCell>
        </UserObject>
        <mxCell id="LCYNJiPnbUZjH4nubwrZ-6" value="&lt;ul&gt;&lt;li&gt;Songs: 300 million&lt;/li&gt;&lt;li&gt;Artists : 10 million&lt;/li&gt;&lt;li&gt;Users: 1 billion&amp;nbsp;&lt;/li&gt;&lt;li&gt;Podcasts&amp;amp;Books : 100 million&lt;/li&gt;&lt;li&gt;Average song size 5 MB&lt;/li&gt;&lt;li&gt;Average podcast&amp;amp;book size 200 MB&lt;/li&gt;&lt;li&gt;Total songs audio files size 1.5 PB&lt;/li&gt;&lt;li&gt;Total books+podcasts file sizes 20 PB&lt;/li&gt;&lt;li&gt;Total audio file sizes =&amp;gt; 22 PB&lt;/li&gt;&lt;li&gt;Songs + Podcasts + Books metadata -&amp;gt; 300 GB&lt;/li&gt;&lt;li&gt;&amp;nbsp;Each user has 1 MB of account data =&amp;gt; 1 PB of user data&amp;nbsp;&lt;/li&gt;&lt;li&gt;So about 23 PB of total data&lt;/li&gt;&lt;li&gt;&lt;font color=&quot;#ff0000&quot;&gt;TODO Bandwidth ?&lt;/font&gt;&lt;/li&gt;&lt;/ul&gt;" style="text;strokeColor=none;fillColor=none;html=1;whiteSpace=wrap;verticalAlign=middle;overflow=hidden;" vertex="1" parent="1">
          <mxGeometry x="-840" y="270" width="230" height="270" as="geometry" />
        </mxCell>
        <mxCell id="LCYNJiPnbUZjH4nubwrZ-7" value="Amazon S3&lt;br&gt;Audio + image + video data" style="shape=cylinder3;whiteSpace=wrap;html=1;boundedLbl=1;backgroundOutline=1;size=15;" vertex="1" parent="1">
          <mxGeometry x="-25" y="525" width="110" height="90" as="geometry" />
        </mxCell>
        <mxCell id="LCYNJiPnbUZjH4nubwrZ-8" value="Amazon RDS&lt;br&gt;Song/Podcast/Users metadata" style="shape=cylinder3;whiteSpace=wrap;html=1;boundedLbl=1;backgroundOutline=1;size=15;" vertex="1" parent="1">
          <mxGeometry x="-200" y="525" width="120" height="90" as="geometry" />
        </mxCell>
        <mxCell id="LCYNJiPnbUZjH4nubwrZ-9" value="Spotify&amp;nbsp;&lt;br&gt;Mobile / Web client" style="rounded=1;whiteSpace=wrap;html=1;" vertex="1" parent="1">
          <mxGeometry x="-570" y="150" width="120" height="400" as="geometry" />
        </mxCell>
        <mxCell id="LCYNJiPnbUZjH4nubwrZ-10" value="Web server" style="whiteSpace=wrap;html=1;aspect=fixed;" vertex="1" parent="1">
          <mxGeometry x="-150" y="320" width="80" height="80" as="geometry" />
        </mxCell>
        <mxCell id="LCYNJiPnbUZjH4nubwrZ-11" value="Web server" style="whiteSpace=wrap;html=1;aspect=fixed;" vertex="1" parent="1">
          <mxGeometry x="-140" y="340" width="80" height="80" as="geometry" />
        </mxCell>
        <mxCell id="LCYNJiPnbUZjH4nubwrZ-12" value="Web server" style="whiteSpace=wrap;html=1;aspect=fixed;" vertex="1" parent="1">
          <mxGeometry x="-130" y="350" width="80" height="80" as="geometry" />
        </mxCell>
        <mxCell id="LCYNJiPnbUZjH4nubwrZ-13" value="Web server" style="whiteSpace=wrap;html=1;aspect=fixed;" vertex="1" parent="1">
          <mxGeometry x="-120" y="365" width="80" height="80" as="geometry" />
        </mxCell>
        <mxCell id="LCYNJiPnbUZjH4nubwrZ-14" value="Load balancer" style="shape=tape;whiteSpace=wrap;html=1;" vertex="1" parent="1">
          <mxGeometry x="-340" y="330" width="90" height="70" as="geometry" />
        </mxCell>
        <mxCell id="LCYNJiPnbUZjH4nubwrZ-15" value="" style="endArrow=classic;html=1;rounded=0;exitX=1.017;exitY=0.556;exitDx=0;exitDy=0;exitPerimeter=0;entryX=0;entryY=0.5;entryDx=0;entryDy=0;entryPerimeter=0;" edge="1" parent="1" target="LCYNJiPnbUZjH4nubwrZ-14">
          <mxGeometry width="50" height="50" relative="1" as="geometry">
            <mxPoint x="-450.00000000000006" y="366.2000000000001" as="sourcePoint" />
            <mxPoint x="-350" y="364" as="targetPoint" />
          </mxGeometry>
        </mxCell>
        <mxCell id="LCYNJiPnbUZjH4nubwrZ-16" value="" style="endArrow=classic;html=1;rounded=0;exitX=1;exitY=0.5;exitDx=0;exitDy=0;exitPerimeter=0;entryX=0;entryY=0.5;entryDx=0;entryDy=0;" edge="1" parent="1" source="LCYNJiPnbUZjH4nubwrZ-14" target="LCYNJiPnbUZjH4nubwrZ-10">
          <mxGeometry width="50" height="50" relative="1" as="geometry">
            <mxPoint x="-420" y="380" as="sourcePoint" />
            <mxPoint x="-370" y="330" as="targetPoint" />
          </mxGeometry>
        </mxCell>
        <mxCell id="LCYNJiPnbUZjH4nubwrZ-17" value="" style="endArrow=classic;html=1;rounded=0;exitX=1;exitY=1;exitDx=0;exitDy=0;entryX=0.333;entryY=0;entryDx=0;entryDy=0;entryPerimeter=0;" edge="1" parent="1" source="LCYNJiPnbUZjH4nubwrZ-13" target="LCYNJiPnbUZjH4nubwrZ-7">
          <mxGeometry width="50" height="50" relative="1" as="geometry">
            <mxPoint x="-420" y="380" as="sourcePoint" />
            <mxPoint x="-370" y="330" as="targetPoint" />
          </mxGeometry>
        </mxCell>
        <mxCell id="LCYNJiPnbUZjH4nubwrZ-18" value="" style="endArrow=classic;html=1;rounded=0;exitX=0.1;exitY=1.044;exitDx=0;exitDy=0;exitPerimeter=0;entryX=0.5;entryY=0;entryDx=0;entryDy=0;entryPerimeter=0;" edge="1" parent="1" source="LCYNJiPnbUZjH4nubwrZ-13" target="LCYNJiPnbUZjH4nubwrZ-8">
          <mxGeometry width="50" height="50" relative="1" as="geometry">
            <mxPoint x="-280" y="440" as="sourcePoint" />
            <mxPoint x="-230" y="390" as="targetPoint" />
          </mxGeometry>
        </mxCell>
        <mxCell id="LCYNJiPnbUZjH4nubwrZ-19" value="CDN&amp;nbsp;&lt;br&gt;(audio/video files cache)" style="shape=hexagon;perimeter=hexagonPerimeter2;whiteSpace=wrap;html=1;fixedSize=1;" vertex="1" parent="1">
          <mxGeometry x="-10" y="210" width="120" height="80" as="geometry" />
        </mxCell>
        <mxCell id="LCYNJiPnbUZjH4nubwrZ-20" value="" style="endArrow=classic;html=1;rounded=0;entryX=1;entryY=0.25;entryDx=0;entryDy=0;exitX=0;exitY=0.5;exitDx=0;exitDy=0;" edge="1" parent="1" source="LCYNJiPnbUZjH4nubwrZ-19" target="LCYNJiPnbUZjH4nubwrZ-9">
          <mxGeometry width="50" height="50" relative="1" as="geometry">
            <mxPoint x="-120" y="280" as="sourcePoint" />
            <mxPoint x="-70" y="230" as="targetPoint" />
          </mxGeometry>
        </mxCell>
        <mxCell id="LCYNJiPnbUZjH4nubwrZ-21" value="" style="endArrow=classic;html=1;rounded=0;" edge="1" parent="1">
          <mxGeometry width="50" height="50" relative="1" as="geometry">
            <mxPoint x="-40" y="350" as="sourcePoint" />
            <mxPoint x="10" y="300" as="targetPoint" />
          </mxGeometry>
        </mxCell>
        <mxCell id="LCYNJiPnbUZjH4nubwrZ-22" value="Local cache" style="shape=cylinder3;whiteSpace=wrap;html=1;boundedLbl=1;backgroundOutline=1;size=15;" vertex="1" parent="1">
          <mxGeometry x="-550" y="445" width="60" height="80" as="geometry" />
        </mxCell>
      </root>
    </mxGraphModel>
  </diagram>
</mxfile>
